<?xml version="1.0" standalone="no"?>
<!DOCTYPE svg PUBLIC "-//W3C//DTD SVG 20010904//EN"
 "http://www.w3.org/TR/2001/REC-SVG-20010904/DTD/svg10.dtd">
<svg version="1.0" xmlns="http://www.w3.org/2000/svg"
 width="1200.000000pt" height="1200.000000pt" viewBox="0 0 1200.000000 1200.000000"
 preserveAspectRatio="xMidYMid meet">
<metadata>
Created by potrace 1.14, written by Peter Selinger 2001-2017
</metadata>
<g transform="translate(0.000000,1200.000000) scale(0.100000,-0.100000)"
fill="#000000" stroke="none">
<path d="M3174 6989 c-312 -52 -547 -268 -635 -583 -30 -110 -43 -271 -30
-387 16 -144 37 -221 91 -334 81 -168 188 -278 345 -356 126 -62 216 -81 375
-81 159 0 247 19 379 83 l85 40 90 -90 c50 -49 104 -100 120 -115 l28 -25 115
107 115 107 -126 121 -126 120 29 55 c65 119 111 318 111 474 -1 275 -115 550
-288 691 -181 148 -438 213 -678 173z m277 -369 c147 -45 235 -139 285 -305
32 -106 20 -408 -17 -431 -5 -3 -46 31 -92 76 -46 44 -88 80 -93 79 -5 0 -56
-51 -113 -112 l-103 -112 93 -87 c51 -48 90 -90 87 -93 -3 -3 -38 -13 -79 -21
-162 -34 -332 18 -424 130 -159 194 -151 589 14 769 44 48 135 101 197 116 69
16 178 12 245 -9z"/>
<path d="M6440 6479 c-84 -16 -203 -83 -264 -149 -61 -66 -125 -187 -147 -280
-20 -81 -18 -290 4 -369 55 -204 183 -337 383 -397 45 -14 90 -19 194 -18 118
1 145 4 216 27 89 30 177 82 243 145 l44 42 -49 42 c-26 24 -82 73 -124 109
l-75 67 -39 -34 c-55 -47 -132 -74 -214 -74 -88 0 -134 14 -179 53 -30 26 -63
80 -63 102 0 3 176 5 390 5 l390 0 0 116 c0 141 -19 232 -70 339 -67 140 -204
248 -349 275 -64 12 -228 11 -291 -1z m267 -315 c53 -25 85 -63 98 -116 l7
-28 -222 0 -222 0 6 26 c33 131 188 186 333 118z"/>
<path d="M7681 6479 c-84 -16 -188 -74 -255 -141 -118 -120 -170 -264 -170
-468 0 -196 52 -338 164 -450 99 -98 218 -147 385 -157 187 -11 363 47 490
161 l60 53 -50 45 c-27 25 -84 75 -124 111 l-75 66 -33 -30 c-60 -52 -111 -72
-198 -77 -45 -2 -99 1 -123 8 -53 14 -106 61 -127 113 l-15 37 390 0 390 0 1
53 c5 186 -16 302 -78 420 -66 125 -180 216 -318 252 -65 16 -239 19 -314 4z
m239 -301 c53 -16 90 -47 111 -92 10 -23 19 -47 19 -53 0 -10 -51 -13 -220
-13 -147 0 -220 3 -220 10 0 19 31 74 59 104 54 59 147 75 251 44z"/>
<path d="M4260 6458 c0 -6 82 -272 182 -590 l183 -578 162 0 161 0 11 33 c5
17 40 145 76 282 89 334 92 343 99 325 7 -19 176 -627 176 -635 0 -3 73 -4
162 -3 l162 3 183 575 c101 316 183 581 183 588 0 9 -44 12 -189 12 l-188 0
-51 -182 c-28 -101 -66 -236 -84 -300 -17 -65 -35 -118 -38 -118 -5 0 -69 225
-162 568 l-9 33 -152 -3 -152 -3 -72 -265 c-96 -354 -94 -347 -102 -329 -5 7
-43 146 -87 307 l-79 292 -187 0 c-139 0 -188 -3 -188 -12z"/>
<path d="M8537 6463 c-4 -3 -7 -71 -7 -150 l0 -143 250 0 c138 0 250 -4 250
-9 0 -4 -17 -28 -38 -52 -34 -39 -105 -126 -399 -486 l-83 -101 0 -116 0 -116
495 0 495 0 0 150 0 150 -251 2 -251 3 246 309 246 309 0 128 0 129 -473 0
c-261 0 -477 -3 -480 -7z"/>
</g>
</svg>
